<svg xmlns="http://www.w3.org/2000/svg" xmlns:xlink="http://www.w3.org/1999/xlink" fill="none" version="1.1" width="686" height="425" viewBox="0 0 686 425"><defs><filter id="master_svg0_129_13605" filterUnits="objectBoundingBox" color-interpolation-filters="sRGB" x="-152" y="-149" width="762.0000610351562" height="506"><feFlood flood-opacity="0" result="BackgroundImageFix"/><feColorMatrix in="SourceAlpha" type="matrix" values="0 0 0 0 0 0 0 0 0 0 0 0 0 0 0 0 0 0 127 0"/><feOffset dy="3" dx="0"/><feGaussianBlur stdDeviation="38"/><feColorMatrix type="matrix" values="0 0 0 0 0.0235294122248888 0 0 0 0 0.1921568661928177 0 0 0 0 0.5647059082984924 0 0 0 0.03999999910593033 0"/><feBlend mode="normal" in2="BackgroundImageFix" result="effect1_dropShadow"/><feBlend mode="normal" in="SourceGraphic" in2="effect1_dropShadow" result="shape"/></filter><radialGradient cx="0" cy="0" r="1" gradientUnits="userSpaceOnUse" id="master_svg1_129_13113" gradientTransform="translate(343.0000305175781 196.24366806447506) rotate(90) scale(79.69183637201786 365.73422712098017)"><stop offset="47.857093811035156%" stop-color="#E2E5EB" stop-opacity="1"/><stop offset="99.99960064888%" stop-color="#FFFFFF" stop-opacity="0"/></radialGradient><radialGradient cx="0" cy="0" r="1" gradientUnits="userSpaceOnUse" id="master_svg2_129_08658" gradientTransform="translate(343.0000305175781 150.07325656712055) rotate(90) scale(46.56875126063824 236.13738539213216)"><stop offset="52.857136726379395%" stop-color="#EAECF1" stop-opacity="1"/><stop offset="97.14270830154419%" stop-color="#F1F3F7" stop-opacity="0"/></radialGradient><radialGradient cx="0" cy="0" r="1" gradientUnits="userSpaceOnUse" id="master_svg3_129_05395" gradientTransform="translate(343 21) rotate(90) scale(76.75307925113157 370.8337358184886)"><stop offset="53.88792157173157%" stop-color="#FFFFFF" stop-opacity="0"/><stop offset="100%" stop-color="#FFFFFF" stop-opacity="0.9700000286102295"/></radialGradient></defs><g style="mix-blend-mode:passthrough"><g style="mix-blend-mode:passthrough" filter="url(#master_svg0_129_13605)"><g style="mix-blend-mode:passthrough"><path d="M114,255C114,296,239,308,338.5,308C438,308,572,287.5,572,255L572,161C572,189.5001,453,204.5,338.5,204.5C224,204.5,114,187.0001,114.00000572205,161C114.00000200773,166.84214,114.00000919339,174.9491,114.000017644,184.4832C114.0000352305,204.3244,114.0000582954,230.3465,114,255Z" fill="url(#master_svg1_129_13113)" fill-opacity="0.5"/></g><g style="mix-blend-mode:passthrough"><ellipse cx="343" cy="162" rx="229" ry="43" fill="#F7F8FA" fill-opacity="1"/><ellipse cx="343" cy="162" rx="228.5" ry="42.5" fill-opacity="0" stroke-opacity="0.800000011920929" stroke="#FFFFFF" fill="none" stroke-width="1"/></g><g style="mix-blend-mode:passthrough"><path d="M177.0000420676,130C176.9999699091,134.95534,176.9999833223,151.5343,176.99999377265,164.4511L177,175C177,185,265.5,193.5,342,193.5C418.5,193.5,509,184,509,175C509,168,509,137.50004,509,130C509,140,425,150,342,150C259,150,177,141,177.0000420676,130Z" fill="url(#master_svg2_129_08658)" fill-opacity="0.6000000238418579"/></g><g style="mix-blend-mode:passthrough"><path d="M509,128.5C509,138.165,434.679,148,343,148C251.3207,148,177,138.165,177,128.5C177,118.83502,251.3207,111,343,111C434.679,111,509,118.83502,509,128.5Z" fill="#FDFDFD" fill-opacity="1"/><path d="M343,148C434.679,148,509,138.165,509,128.5C509,118.83502,434.679,111,343,111C251.3207,111,177,118.83502,177,128.5C177,138.165,251.3207,148,343,148ZM505.169,125.8621Q508,127.3203,508,128.5Q508,129.6954,505.152,131.2329Q501.957,132.9582,495.693,134.6592Q483.002,138.1056,460.259,140.8817Q436.965,143.725,407.56100000000004,145.31369999999998Q376.351,147,343,147Q309.649,147,278.43899999999996,145.31369999999998Q249.03390000000002,143.725,225.7414,140.8817Q202.9974,138.1055,190.3072,134.6592Q184.04304,132.9581,180.8476,131.2329Q177.999985,129.6954,177.999985,128.5Q178,127.3203,180.83051,125.8621Q184.01399,124.222,190.2869,122.6585Q202.8193,119.5349,225.7251,117.12012Q248.67000000000002,114.70123,278.43,113.37424Q309.25,112,343,112Q376.75,112,407.57,113.37424Q437.331,114.70124,460.275,117.12012Q483.181,119.53496,495.713,122.6585Q501.986,124.222,505.169,125.8621Z" fill-rule="evenodd" fill="#FFFFFF" fill-opacity="1"/></g><g style="opacity:0.6000000238418579;mix-blend-mode:passthrough"><path d="M232,122.80333C232,130.3443,305.5542,136,342.331,136C379.108,136,454,129.5902,454,122.80333L454,118.81539L232,118.81539L232,122.80333Z" fill="#EAECF1" fill-opacity="1"/></g><g style="mix-blend-mode:passthrough"><ellipse cx="343" cy="119.5" rx="111" ry="13.5" fill="#FFFFFF" fill-opacity="0"/></g></g><g style="opacity:0.699999988079071;mix-blend-mode:passthrough"><path d="M136,21Q224.5,111.1846,232,119.988C232,127.529,285.163,133.185,342.332,133.185C399.5,133.185,454,126.775,454,119.988Q459.5,113.6846,550,21L136,21Z" fill="url(#master_svg3_129_05395)" fill-opacity="1"/></g></g></svg>