<svg xmlns="http://www.w3.org/2000/svg" xmlns:xlink="http://www.w3.org/1999/xlink" fill="none" version="1.1" width="16" height="16" viewBox="0 0 16 16"><g><g><path d="M11.31057140625,12.5598217578125L12.31000140625,12.5598217578125L12.31000140625,13.4343517578125L3.68994140625,13.4343517578125L3.68994140625,12.5598217578125L4.68936840625,12.5598217578125L4.68936840625,3.4400507578125C4.68936840625,3.1901937578125,4.81430140625,2.9403377578125,4.93922140625,2.8154087578125C5.06415140625,2.6904797578125,5.31401140625,2.5655517578125,5.56387140625,2.5655517578125L10.43607140625,2.5655517578125C10.685931406249999,2.5655517578125,10.93579140625,2.6904797578125,11.06072140625,2.8154087578125C11.18564140625,2.9403367578125,11.31057140625,3.1901937578125,11.31057140625,3.4400507578125L11.31057140625,12.5598217578125ZM7.43779140625,11.1856117578125L9.311721406250001,9.3116817578125L7.93751140625,9.3116817578125L7.93751140625,8.0624017578125L6.56329140625,9.8114017578125L8.062431406249999,9.8114017578125L7.43779140625,11.1856117578125ZM10.43607140625,3.9397617578124997L5.56387140625,3.9397617578124997L5.56387140625,6.6881917578125L10.43607140625,6.6881917578125L10.43607140625,3.9397617578124997Z" fill="#2FAA85" fill-opacity="1"/></g></g></svg>