<svg xmlns="http://www.w3.org/2000/svg" xmlns:xlink="http://www.w3.org/1999/xlink" fill="none" version="1.1"
    width="42.1854248046875" height="45.470947265625" viewBox="0 0 42.1854248046875 45.470947265625">
    <defs>
        <filter id="master_svg0_124_06503" filterUnits="objectBoundingBox" color-interpolation-filters="sRGB" x="-10"
            y="-8" width="46.181819915771484" height="49.09090995788574">
            <feFlood flood-opacity="0" result="BackgroundImageFix" />
            <feColorMatrix in="SourceAlpha" type="matrix" values="0 0 0 0 0 0 0 0 0 0 0 0 0 0 0 0 0 0 127 0" />
            <feOffset dy="2" dx="0" />
            <feGaussianBlur stdDeviation="2.5" />
            <feColorMatrix type="matrix"
                values="0 0 0 0 0.0758480429649353 0 0 0 0 0.3571000099182129 0 0 0 0 0.2724498212337494 0 0 0 0.10000000149011612 0" />
            <feBlend mode="normal" in2="BackgroundImageFix" result="effect1_dropShadow" />
            <feBlend mode="normal" in="SourceGraphic" in2="effect1_dropShadow" result="shape" />
        </filter>
    </defs>
    <g>
        <g filter="url(#master_svg0_124_06503)">
            <path
                d="M8.134821984375,17.375753125C7.118524984375,24.530753125,12.030618984375,31.089453125,19.144708984375,32.281953125L21.177308984375,35.092853125000005L23.040508984375002,32.281953125C28.799508984375,31.430153125,33.203508984375,26.915753125,34.050408984375,21.123553125C35.066708984375,13.968603125,30.154608984375,7.154333125,23.040508984375002,6.132190125C15.926438984375,5.1100481250000005,9.151118984375,10.220753125,8.134821984375,17.375753125Z"
                fill="#2FAA85" fill-opacity="1" />
            <path
                d="M23.111608984375,5.637272125Q25.831008984375,6.027988525,28.168108984375,7.474483125Q30.415108984375,8.865213125,31.998208984375,11.033223125Q33.575308984375,13.193143124999999,34.243408984375,15.781443125Q34.934108984375,18.457353124999997,34.545408984375,21.193953125Q33.884808984375,25.712453125,30.744008984375,28.906053125Q27.588208984375,32.114753125,23.113708984375002,32.776553125L23.040508984375002,32.281953125L23.457308984375,32.558253125L21.195208984375,35.970853125000005L18.739508984375,32.574953125L19.144708984375,32.281953125L19.062008984374998,32.775053125Q16.339998984375,32.318853125000004,14.017098984375,30.881153125Q11.765408984375,29.487453125,10.189288984375,27.362653125Q8.609023984375,25.232253125,7.942211084375,22.682153125Q7.251358984375,20.040053125,7.639790984375,17.305453125Q8.028213584375,14.570843125,9.464408984375,12.197803125Q10.848128984375,9.911483125,12.999898984375001,8.288373125Q15.151988984375,6.665023125,17.722488984374998,5.968987925Q20.391108984375002,5.246387125,23.111608984375,5.637271125L23.111608984375,5.637272125ZM22.969408984375,6.627106125Q20.453208984375,6.265580125,17.983848984375,6.934227125Q15.599908984375,7.579753125,13.602098984375,9.086713125Q11.603988984375,10.593913125,10.319928984375,12.715573124999999Q8.989538984375,14.913783125,8.629852984375,17.446053125Q8.269696984375,19.981653125,8.909682984375,22.429153125Q9.527518984375,24.791953125,10.992448984375,26.766953125Q12.454498984375,28.737953125,14.543378984375,30.030853125Q16.699148984375,31.365053125,19.227408984375,31.788853125L19.429708984375,31.822753125L21.582508984375,34.799853125L21.177308984375,35.092853125000005L20.760508984375,34.816653125L22.746908984375,31.819953125L22.967408984375,31.787353125Q27.110308984375,31.174653125,30.031008984375,28.204853125Q32.942608984375,25.244353125,33.555408984375,21.053253124999998Q33.916008984375,18.514153125,33.275108984374995,16.031353125000003Q32.654808984374995,13.628333125000001,31.190508984375,11.622923125Q29.722708984375,9.612703125,27.641808984375,8.324803124999999Q25.482208984375,6.988141125,22.969408984375,6.627107125L22.969408984375,6.627106125Z"
                fill="#FFFFFF" fill-opacity="1" />
        </g>
        <g>
            <path
                d="M26.432608984375,25.993353125L27.931808984375,25.993353125L27.931808984375,27.305153125L15.001708984375,27.305153125L15.001708984375,25.993353125L16.500848984375,25.993353125L16.500848984375,12.313703125C16.500848984375,11.938916125,16.688238984375,11.564131125,16.875638984375,11.376738125C17.063028984375,11.189345125,17.437808984375,11.001953125,17.812598984375,11.001953125L25.120908984375,11.001953125C25.495708984375,11.001953125,25.870508984375,11.189346125,26.057908984375,11.376738125C26.245308984375,11.564131125,26.432608984375,11.938916125,26.432608984375,12.313703125L26.432608984375,25.993353125ZM20.623488984375,23.932053125L23.434378984375,21.121153125L21.373058984375,21.121153125L21.373058984375,19.247223124999998L19.311738984375,21.870753125L21.560448984375,21.870753125L20.623488984375,23.932053125ZM25.120908984375,13.063273125L17.812598984375,13.063273125L17.812598984375,17.185913125L25.120908984375,17.185913125L25.120908984375,13.063273125Z"
                fill="#FFFFFF" fill-opacity="1" />
        </g>
    </g>
</svg>